<svg xmlns="http://www.w3.org/2000/svg" viewBox="0 0 400 400" role="img" aria-label="Sought After"><path d="M79.24,195.29L95.40,201.82C96.73,202.36 98.10,202.91 99.43,203.44L125.76,213.90C135.17,217.64 144.74,222.35 153.07,228.16C155.44,229.81 160.26,235.00 163.32,234.09C165.64,233.40 166.08,230.07 166.73,228.12C168.50,222.79 170.34,217.32 172.42,212.10C175.18,205.21 177.30,198.16 179.84,191.20C180.97,188.11 183.16,184.63 182.54,181.21C181.85,177.38 176.78,175.73 173.94,173.76C165.13,167.62 154.66,163.47 144.72,159.56L132.52,154.76C104.02,143.54 69.19,135.69 49.06,110.73C45.23,105.97 42.70,99.49 41.71,93.53C36.54,62.48 62.26,36.56 92.43,34.85C101.75,34.32 110.66,34.68 119.82,36.67C140.67,41.21 156.92,57.29 167.50,74.92C173.04,84.14 176.55,94.09 179.64,104.32C180.50,107.18 181.23,110.09 181.90,112.99C182.32,114.80 182.29,116.87 183.52,118.39C185.05,120.29 188.39,119.89 189.49,117.74C190.91,114.98 190.37,111.22 190.37,108.23L190.37,42.14C190.37,39.26 191.50,32.00 187.50,31.11C184.06,30.34 182.51,34.92 181.02,37.04C179.14,39.75 175.77,41.46 172.49,41.73C165.65,42.30 158.63,39.12 152.43,36.64C145.63,33.92 138.85,31.70 131.72,29.96C99.81,22.16 64.28,26.01 36.99,45.04C32.52,48.15 29.00,52.08 25.32,56.03C4.96,77.89 0.00,112.57 11.90,139.87C16.18,149.69 22.52,158.52 30.08,166.07C43.42,179.42 61.98,188.30 79.24,195.29ZM186.06,201.18L181.18,215.23C171.07,244.35 160.47,273.31 150.44,302.46L146.33,314.42C144.32,320.24 142.06,325.99 140.12,331.82C136.54,342.55 133.49,353.14 124.98,361.06C119.90,365.79 112.99,367.86 106.29,368.82C103.90,369.16 98.67,368.59 97.76,371.62C95.89,377.84 104.48,376.64 107.98,376.64L161.80,376.64C164.46,376.64 168.27,377.31 170.74,376.14C172.60,375.25 172.55,372.78 171.28,371.42C168.92,368.88 163.63,369.23 160.49,368.99C154.80,368.55 145.38,366.96 143.59,360.39C143.00,358.22 143.19,355.87 143.56,353.68C144.02,350.87 144.95,348.29 145.87,345.61L151.44,329.46C166.60,285.51 181.50,241.42 197.12,197.63L204.82,176.05C210.96,158.83 217.10,141.55 222.88,124.22C224.28,120.00 225.41,115.52 227.06,111.40C227.33,110.73 228.26,107.96 229.25,108.07C230.77,108.23 231.71,113.42 232.12,114.64C234.39,121.47 236.59,128.36 239.02,135.12L244.77,151.07C248.53,161.50 252.14,172.01 255.89,182.46L260.38,194.97C262.62,201.21 265.01,207.37 267.18,213.66L271.30,225.57C273.48,231.86 275.76,238.09 278.05,244.34C278.62,245.90 280.67,249.37 279.77,250.99C279.18,252.05 277.55,251.98 276.53,252.00C274.09,252.04 271.69,252.08 269.25,252.27C260.35,252.95 251.01,252.47 242.06,252.47C239.49,252.47 233.51,251.15 231.61,253.35C230.18,254.99 230.69,258.47 232.52,259.65C235.04,261.29 239.22,260.50 242.06,260.50L274.17,260.50C276.82,260.50 280.60,259.82 283.04,261.07C285.03,262.09 285.33,264.72 285.97,266.64C287.61,271.53 289.36,276.46 291.13,281.31C297.63,299.07 304.03,316.87 310.52,334.62C312.55,340.16 314.63,345.72 316.49,351.32C317.45,354.19 318.81,357.23 318.75,360.32C318.56,370.06 304.28,368.91 297.64,369.43C295.95,369.56 294.11,369.39 292.48,369.93C290.24,370.68 288.57,374.24 291.03,375.83C293.51,377.44 297.81,376.64 300.61,376.64L385.59,376.64C390.76,376.64 394.52,377.24 397.97,372.97C398.53,372.27 400.00,370.91 399.96,369.97C399.92,368.99 398.51,368.82 397.80,368.68C395.27,368.20 392.66,367.80 390.28,366.76C383.89,363.97 379.97,359.62 377.40,353.20C369.34,333.07 361.25,312.71 354.40,292.16C349.08,276.20 341.85,260.85 336.52,244.88C332.05,231.46 326.38,218.41 321.52,205.12C306.47,163.99 290.63,123.16 275.59,82.03C270.62,68.46 265.48,54.97 260.51,41.39C259.41,38.38 258.32,35.37 257.31,32.32C256.78,30.74 256.17,29.16 254.44,28.58C250.68,27.32 246.62,29.16 245.10,32.66C240.31,43.64 237.02,55.69 233.23,67.06C227.63,83.85 220.88,100.32 215.29,117.10C205.90,145.25 195.79,173.14 186.06,201.18ZM205.81,205.70C206.21,205.70 205.08,206.02 204.80,206.30C204.35,206.75 204.02,207.48 203.79,208.06C202.80,210.52 201.79,213.13 201.02,215.68C198.80,223.04 196.11,230.29 193.67,237.60C190.87,246.01 187.30,254.17 184.73,262.66C183.88,265.48 182.43,268.17 181.80,271.05C181.06,274.44 181.73,277.82 181.60,281.24C181.33,288.04 180.05,295.11 177.11,301.30C175.48,304.75 173.37,308.25 170.97,311.22C169.30,313.29 167.20,315.09 165.81,317.39C164.03,320.36 163.32,323.80 162.24,327.03C161.61,328.92 158.41,334.78 160.59,336.31C162.74,337.82 167.05,334.72 168.95,333.75C175.92,330.16 182.63,326.48 188.41,321.10C195.24,314.74 201.32,308.36 206.69,300.66C219.38,282.45 222.39,258.83 219.33,237.43C218.11,228.83 215.28,221.36 212.32,213.28C211.15,210.10 209.63,205.70 205.81,205.70ZM3.40,254.60L3.40,328.25C3.40,331.41 2.04,338.53 6.87,338.53C12.02,338.53 12.99,330.59 16.79,327.95C25.02,322.21 34.73,324.89 43.50,327.81C50.14,330.02 56.43,333.30 62.99,335.70C76.74,340.73 92.25,345.48 107.03,345.48C108.29,345.48 109.55,345.48 110.81,345.48C116.03,345.48 127.59,346.89 127.77,339.04C127.85,335.79 124.41,336.13 122.14,336.51C114.31,337.82 106.09,336.92 98.30,335.80C79.89,333.17 62.99,323.45 49.53,310.91C33.32,295.82 22.92,275.46 16.01,254.73C14.16,249.16 12.57,243.44 11.33,237.70C10.79,235.25 10.30,232.55 7.35,232.24C3.64,231.84 3.53,234.76 3.37,237.57C3.04,243.30 3.40,248.86 3.40,254.60Z" fill="#C6A15B" fill-rule="evenodd"/></svg>